<svg width="30" height="30" viewBox="0 0 30 30" fill="none" xmlns="http://www.w3.org/2000/svg">
<rect width="30" height="30" rx="15" fill="#F6ECA9"/>
<path d="M23.8889 24V21.8888C23.8889 20.769 23.444 19.6951 22.6522 18.9033C21.8604 18.1115 20.7865 17.6666 19.6667 17.6666H11.2222C10.1024 17.6666 9.02848 18.1115 8.23666 18.9033C7.44484 19.6951 7 20.769 7 21.8888V24" stroke="#596FB7" stroke-width="1.58333" stroke-linecap="round" stroke-linejoin="round"/>
<path d="M15.4444 13.4444C17.7763 13.4444 19.6666 11.5541 19.6666 9.22222C19.6666 6.89035 17.7763 5 15.4444 5C13.1125 5 11.2222 6.89035 11.2222 9.22222C11.2222 11.5541 13.1125 13.4444 15.4444 13.4444Z" stroke="#596FB7" stroke-width="1.58333" stroke-linecap="round" stroke-linejoin="round"/>
</svg>
