<svg width="20" height="14" viewBox="0 0 20 14" fill="none" xmlns="http://www.w3.org/2000/svg">
<path d="M19.1667 7.78232C19.3726 7.70957 19.5456 7.59787 19.6666 7.45972C19.7875 7.32156 19.8516 7.1624 19.8516 7.00004C19.8516 6.83768 19.7875 6.67851 19.6666 6.54036C19.5456 6.4022 19.3726 6.2905 19.1667 6.21776L1.79588 0.0924925C1.5805 0.0164901 1.3384 -0.013663 1.09914 0.00571153C0.859868 0.025086 0.633767 0.0931506 0.448414 0.201602C0.263061 0.310054 0.126471 0.454204 0.0553035 0.616468C-0.0158636 0.778733 -0.0185309 0.952097 0.0476283 1.11541L1.8207 5.4906C1.89486 5.67346 2.05149 5.8343 2.26686 5.94877C2.48224 6.06324 2.74463 6.12511 3.01432 6.125L8.68591 6.125C9.01498 6.125 9.33058 6.21719 9.56327 6.38129C9.79596 6.5454 9.92668 6.76796 9.92668 7.00004C9.92668 7.23211 9.79596 7.45468 9.56327 7.61878C9.33058 7.78288 9.01498 7.87507 8.68591 7.87507L3.01432 7.87507C2.74463 7.87497 2.48224 7.93684 2.26686 8.05131C2.05149 8.16578 1.89486 8.32662 1.8207 8.50948L0.0488674 12.8847C-0.017423 13.0479 -0.0149159 13.2213 0.0560828 13.3835C0.127082 13.5458 0.263504 13.69 0.448712 13.7986C0.63392 13.9071 0.859909 13.9753 1.09912 13.9948C1.33833 14.0143 1.58043 13.9843 1.79588 13.9085L19.1667 7.7832L19.1667 7.78232Z" fill="#11235A"/>
</svg>
